<?xml version="1.0" standalone="no"?>
<!DOCTYPE svg PUBLIC "-//W3C//DTD SVG 20010904//EN"
 "http://www.w3.org/TR/2001/REC-SVG-20010904/DTD/svg10.dtd">
<svg version="1.0" xmlns="http://www.w3.org/2000/svg"
 width="460.000000pt" height="460.000000pt" viewBox="0 0 460.000000 460.000000"
 preserveAspectRatio="xMidYMid meet">
<metadata>
Created by potrace 1.10, written by Peter Selinger 2001-2011
</metadata>
<g transform="translate(0.000000,460.000000) scale(0.050000,-0.050000)"
fill="#ffffff" stroke="none">
<path d="M4933 6845 c-103 -143 -244 -340 -323 -453 -44 -62 -125 -176 -180
-251 -55 -76 -163 -229 -240 -340 -77 -111 -197 -280 -266 -376 -69 -96 -148
-206 -176 -245 -27 -38 -83 -117 -124 -174 -41 -57 -119 -168 -174 -246 -55
-78 -131 -185 -170 -237 -38 -52 -79 -109 -90 -127 -38 -59 -267 -386 -293
-418 -15 -17 -36 -45 -47 -62 -42 -64 -105 -153 -251 -356 -201 -281 -193
-264 -126 -248 31 8 89 30 127 49 75 39 226 108 340 156 39 16 103 46 143 66
40 20 82 37 95 37 12 0 78 26 147 58 201 94 355 162 365 162 5 0 79 32 165 71
264 122 280 129 301 129 23 0 105 247 194 580 19 72 51 184 71 250 20 66 56
192 79 280 24 88 55 196 69 240 15 44 42 139 61 210 19 72 51 184 70 250 38
132 111 390 150 530 34 123 107 376 133 456 29 93 13 96 -50 9z"/>
<path d="M6669 6758 c-17 -28 21 -67 48 -50 23 15 9 72 -18 72 -9 0 -23 -10
-30 -22z"/>
<path d="M1600 6340 c-24 -15 -25 -23 -5 -43 19 -19 30 -20 49 -1 32 32 -4 69
-44 44z"/>
<path d="M5090 5800 c10 -206 64 -979 120 -1728 33 -445 47 -403 -134 -418
-80 -7 -254 -22 -386 -33 -132 -11 -357 -34 -500 -50 -143 -17 -361 -39 -485
-51 -329 -31 -351 -47 -124 -87 332 -60 623 -109 839 -143 116 -18 282 -45
370 -61 88 -16 277 -47 420 -69 242 -37 326 -52 730 -127 83 -16 152 -27 154
-25 3 2 -41 139 -97 303 -56 164 -108 326 -117 359 -9 33 -32 105 -51 160
-101 286 -138 396 -269 800 -95 294 -433 1276 -458 1330 -17 40 -20 6 -12
-160z"/>
<path d="M1569 3818 c-21 -33 26 -71 53 -44 23 23 9 66 -22 66 -10 0 -24 -10
-31 -22z"/>
<path d="M3548 1817 c-17 -27 22 -65 50 -48 12 7 22 21 22 30 0 27 -57 41 -72
18z"/>
</g>
</svg>
