<?xml version="1.0" standalone="no"?>
<!DOCTYPE svg PUBLIC "-//W3C//DTD SVG 20010904//EN"
 "http://www.w3.org/TR/2001/REC-SVG-20010904/DTD/svg10.dtd">
<svg version="1.0" xmlns="http://www.w3.org/2000/svg"
 width="460.000000pt" height="460.000000pt" viewBox="0 0 460.000000 460.000000"
 preserveAspectRatio="xMidYMid meet">

<g transform="translate(0.000000,460.000000) scale(0.100000,-0.100000)"
fill="#ffffff" stroke="none">
<path d="M2116 4517 c-19 -19 -25 -39 -30 -108 -4 -46 -14 -93 -22 -103 -18
-25 -129 -47 -162 -33 -15 7 -36 40 -62 94 -45 96 -65 110 -133 92 -75 -20
-80 -30 -73 -144 7 -118 3 -129 -70 -156 -84 -32 -91 -30 -169 69 -28 34 -60
65 -72 68 -29 8 -108 -29 -128 -59 -15 -23 -14 -29 15 -108 16 -45 30 -91 30
-101 0 -33 -94 -108 -136 -108 -12 0 -54 27 -93 60 -40 33 -81 60 -92 60 -49
0 -119 -61 -119 -104 0 -11 20 -52 45 -91 60 -92 60 -119 0 -174 -56 -52 -83
-53 -175 -6 -90 45 -109 45 -154 -5 -53 -59 -49 -81 29 -165 76 -82 79 -97 32
-175 -38 -66 -59 -71 -150 -41 -108 37 -139 27 -172 -53 -24 -57 -14 -77 65
-130 101 -68 106 -78 80 -157 -29 -88 -36 -91 -150 -84 -104 6 -121 1 -140
-49 -14 -37 -13 -101 3 -114 6 -5 51 -26 100 -47 98 -42 103 -50 95 -137 -7
-72 -33 -92 -137 -108 -97 -15 -121 -36 -121 -105 0 -68 24 -90 116 -105 43
-6 88 -17 100 -22 28 -13 44 -56 44 -119 0 -57 -18 -75 -112 -109 -93 -34
-101 -44 -95 -109 4 -37 13 -61 29 -78 22 -24 26 -25 115 -18 56 4 100 2 111
-4 11 -6 29 -38 41 -75 26 -76 21 -92 -37 -131 -20 -14 -54 -36 -74 -50 -48
-32 -55 -61 -29 -119 28 -65 55 -75 140 -51 36 10 84 19 106 19 38 1 41 -2 72
-54 47 -77 44 -93 -32 -175 -78 -83 -81 -104 -29 -164 45 -51 63 -52 154 -6
95 48 125 46 178 -8 47 -48 55 -88 24 -128 -45 -58 -75 -125 -68 -152 7 -30
78 -87 108 -87 19 0 121 72 147 104 23 27 70 19 123 -21 27 -21 51 -47 54 -59
3 -11 -8 -59 -24 -106 -25 -71 -28 -90 -19 -109 15 -31 99 -73 130 -65 12 3
47 37 77 76 31 40 65 73 79 77 31 8 121 -23 144 -50 15 -17 17 -33 11 -121 -7
-115 -4 -123 73 -144 68 -20 88 -6 134 94 45 95 58 104 128 93 25 -4 51 -8 58
-8 33 -2 51 -43 59 -129 9 -108 27 -132 102 -132 71 0 88 18 107 115 21 105
32 121 91 129 107 14 119 5 158 -112 15 -44 34 -86 41 -92 30 -25 139 -10 155
20 6 10 10 59 10 108 0 80 2 92 24 115 30 32 122 55 154 38 12 -6 40 -43 63
-82 57 -96 74 -106 139 -84 30 10 57 27 67 41 15 23 15 31 -1 108 -24 112 -21
124 39 163 77 51 100 46 177 -37 48 -52 72 -70 91 -70 37 0 95 37 113 72 14
28 13 33 -26 116 -26 55 -39 94 -36 108 7 26 97 104 121 104 18 0 92 -40 143
-78 25 -18 41 -23 64 -18 37 7 98 71 98 102 0 13 -25 56 -55 96 -35 46 -55 83
-55 100 0 16 16 47 40 77 49 62 64 64 174 19 95 -38 116 -33 153 33 36 63 28
86 -57 156 -58 48 -70 63 -70 89 0 40 46 131 71 139 10 4 62 1 114 -6 106 -14
117 -10 142 48 31 76 10 113 -88 157 -94 41 -104 63 -74 163 18 62 40 73 140
73 93 0 122 20 131 92 8 57 -11 92 -53 102 -71 17 -140 41 -155 54 -14 12 -18
31 -18 87 0 87 5 93 110 124 41 12 81 24 88 26 42 14 39 130 -5 165 -20 16
-41 20 -99 20 -99 0 -121 11 -139 73 -30 100 -22 119 68 163 39 19 79 42 89
51 21 19 23 61 5 106 -25 58 -37 62 -144 49 -113 -15 -131 -8 -163 63 -34 74
-28 96 35 145 60 47 95 88 95 115 0 30 -51 105 -76 111 -16 4 -52 -5 -103 -25
-108 -43 -122 -42 -171 20 -24 30 -40 61 -40 77 0 17 21 55 55 101 30 41 55
85 55 98 0 32 -72 103 -106 103 -14 0 -40 -11 -58 -25 -18 -14 -36 -25 -40
-25 -4 0 -24 -11 -44 -25 -20 -14 -45 -25 -55 -25 -24 0 -116 78 -123 104 -3
13 11 56 35 108 47 102 45 123 -18 163 -64 40 -83 35 -160 -45 -79 -83 -100
-87 -176 -37 -60 39 -63 51 -39 163 16 76 16 85 1 108 -9 13 -37 32 -62 41
-61 24 -84 12 -132 -66 -70 -113 -80 -118 -180 -90 -59 16 -73 47 -73 156 0
101 -12 118 -84 129 -65 10 -87 -7 -115 -86 -38 -108 -43 -118 -64 -129 -12
-7 -44 -8 -84 -4 -77 8 -85 18 -108 130 -19 97 -36 115 -107 115 -38 0 -54 -5
-72 -23z m558 -512 c186 -40 421 -137 556 -228 174 -118 378 -303 448 -408 13
-19 43 -61 68 -94 54 -73 150 -266 199 -401 20 -54 48 -155 62 -224 24 -113
27 -146 26 -345 0 -189 -3 -235 -22 -325 -34 -163 -82 -300 -159 -460 -148
-306 -462 -620 -762 -763 -188 -89 -342 -139 -518 -168 -107 -18 -156 -20
-312 -16 -286 7 -477 55 -735 182 -324 159 -620 452 -772 765 -136 278 -183
481 -183 790 0 102 2 201 6 220 55 323 145 547 314 790 94 135 268 310 394
395 17 12 54 37 81 56 70 50 271 145 389 185 275 93 631 112 920 49z"/>
<path d="M2147 3353 c9 -16 40 -59 68 -98 28 -38 66 -95 85 -125 59 -94 75
-106 217 -159 159 -60 188 -75 198 -98 10 -24 44 -258 45 -305 0 -26 -4 -38
-14 -38 -19 0 -104 36 -273 116 -39 19 -77 34 -84 34 -7 0 -35 13 -63 28 -28
16 -87 44 -131 62 -44 19 -87 39 -95 45 -8 7 -53 28 -100 48 -47 19 -139 61
-204 92 -65 30 -123 54 -129 52 -8 -2 220 -464 246 -496 7 -8 46 -30 87 -49
41 -19 134 -63 206 -98 73 -35 135 -64 138 -64 6 0 134 -60 331 -156 125 -60
139 -59 202 19 28 34 76 89 107 122 31 33 68 79 83 103 22 38 25 50 19 100 -3
31 -8 86 -11 122 -13 155 -58 476 -69 486 -6 7 -74 33 -151 58 -77 26 -153 51
-170 57 -16 6 -68 21 -115 34 -47 13 -161 49 -253 79 -92 31 -172 56 -178 56
-5 0 -2 -12 8 -27z"/>
<path d="M2000 2139 c-30 -17 -118 -73 -195 -124 -77 -51 -150 -98 -162 -104
-33 -17 -46 -50 -83 -206 -18 -77 -38 -164 -45 -192 -15 -63 -9 -66 48 -20 23
17 49 37 59 42 10 6 73 50 140 98 175 125 288 197 311 197 11 0 52 -15 91 -34
39 -18 114 -52 166 -74 144 -61 319 -141 371 -168 26 -13 52 -24 58 -24 6 0
39 -13 73 -29 35 -15 100 -45 146 -66 45 -21 85 -36 88 -33 3 4 -6 24 -20 47
-14 22 -26 45 -26 50 0 5 -6 16 -13 23 -7 7 -48 76 -90 154 -42 78 -85 148
-95 157 -9 8 -55 32 -102 52 -47 20 -150 66 -230 102 -80 35 -170 75 -200 88
-30 13 -90 39 -134 59 -43 20 -83 36 -90 36 -6 0 -36 -14 -66 -31z"/>
</g>
</svg>
