<?xml version="1.0" standalone="no"?>
<!DOCTYPE svg PUBLIC "-//W3C//DTD SVG 20010904//EN"
 "http://www.w3.org/TR/2001/REC-SVG-20010904/DTD/svg10.dtd">
<svg version="1.0" xmlns="http://www.w3.org/2000/svg"
 width="300.000000pt" height="300.000000pt" viewBox="0 0 300.000000 300.000000"
 preserveAspectRatio="xMidYMid meet">

<defs>
    <style>
        .left {
            stroke-dasharray: 800;
            stroke-dashoffset: 0;
            animation: dash 2s linear infinite;
        }

        @keyframes loading-spinner {
        from {
            transform: rotate(0deg)
        }
        to {
        transform: rotate(360deg)
        }
        }
    </style>
</defs>

<g transform="translate(0.000000,300.000000) scale(0.100000,-0.100000)"
fill="#ffffff" stroke="none">

<path class="left-icon" d="M1607 2168 c-31 -46 -88 -128 -127 -183 -39 -55 -98 -138 -131 -185
-138 -197 -462 -652 -511 -717 -21 -29 -38 -54 -38 -57 0 -3 21 6 48 19 43 22
89 43 283 125 36 15 81 35 100 43 19 9 64 29 101 45 60 27 68 34 77 69 6 21
27 93 46 161 20 68 42 147 50 175 23 88 74 270 90 322 8 28 24 84 36 125 12
41 26 88 31 103 20 52 1 37 -55 -45z m-31 -158 c-54 -196 -69 -248 -88 -310
-17 -56 -30 -102 -67 -245 -5 -16 -16 -56 -27 -89 -18 -57 -19 -59 -84 -88
-36 -16 -78 -35 -95 -43 -133 -61 -309 -134 -314 -130 -3 4 113 178 190 285
22 30 48 66 57 80 9 14 19 27 22 30 3 3 31 41 61 85 72 105 102 147 116 162 6
7 21 29 34 50 13 21 25 40 28 43 4 3 22 28 41 55 19 28 39 55 45 62 5 6 30 41
55 76 25 36 46 65 47 64 1 -1 -9 -41 -21 -87z"/>


<path class="right-icon" d="M1696 1865 c3 -49 9 -139 14 -200 5 -60 14 -189 20 -285 6 -96 13
-185 15 -197 6 -25 -5 -27 -185 -43 -63 -5 -151 -14 -195 -20 -44 -5 -116 -13
-159 -16 -47 -4 -74 -9 -65 -14 16 -9 192 -41 384 -70 33 -5 130 -21 215 -35
85 -15 180 -30 210 -35 30 -4 62 -11 71 -15 12 -4 -16 91 -103 347 -65 194
-143 425 -173 513 l-54 160 5 -90z m84 -260 c4 -11 19 -56 33 -100 14 -44 33
-100 43 -125 9 -25 20 -58 24 -75 5 -16 31 -97 59 -178 28 -82 51 -151 51
-153 0 -5 -27 -1 -95 12 -16 3 -43 7 -60 10 -16 2 -52 8 -80 13 -27 6 -69 12
-93 15 -24 3 -46 7 -50 10 -4 2 -32 7 -62 11 -30 3 -71 10 -90 16 -19 5 -50 9
-67 9 -18 0 -33 5 -33 11 0 5 5 7 10 4 6 -3 10 -2 10 2 0 5 20 8 45 7 25 -1
47 2 50 6 2 4 31 8 62 9 32 1 83 5 113 10 30 5 60 6 68 4 7 -3 23 5 34 17 19
20 20 30 14 114 -4 50 -9 127 -12 171 -3 44 -9 124 -14 179 -13 132 -12 140
12 76 11 -30 24 -64 28 -75z"/>
</g>
</svg>
